<mxfile host="app.diagrams.net" modified="2021-11-27T14:07:01.971Z" agent="5.0 (Windows NT 10.0; Win64; x64) AppleWebKit/537.36 (KHTML, like Gecko) Chrome/96.0.4664.45 Safari/537.36" etag="GvVh7zZs7w0_KRUsbz55" version="15.7.3" type="github">
  <diagram id="oadXZSEGwFhhU_oGSOdR" name="Page-1">
    <mxGraphModel dx="1447" dy="655" grid="1" gridSize="10" guides="1" tooltips="1" connect="1" arrows="1" fold="1" page="1" pageScale="1" pageWidth="850" pageHeight="1100" math="0" shadow="0">
      <root>
        <mxCell id="0" />
        <mxCell id="1" parent="0" />
        <mxCell id="2jxxQjxaxx46Wigxdtqs-1" value="" style="rounded=0;whiteSpace=wrap;html=1;" vertex="1" parent="1">
          <mxGeometry x="332" y="176" width="950" height="890" as="geometry" />
        </mxCell>
        <mxCell id="2jxxQjxaxx46Wigxdtqs-2" value="" style="endArrow=diamondThin;endFill=0;endSize=24;html=1;rounded=0;edgeStyle=orthogonalEdgeStyle;entryX=1.002;entryY=0.743;entryDx=0;entryDy=0;entryPerimeter=0;exitX=0.5;exitY=0;exitDx=0;exitDy=0;" edge="1" parent="1" source="2jxxQjxaxx46Wigxdtqs-18" target="2jxxQjxaxx46Wigxdtqs-15">
          <mxGeometry width="160" relative="1" as="geometry">
            <mxPoint x="1147.2" y="775.6500000000001" as="sourcePoint" />
            <mxPoint x="881.28" y="360.68000000000006" as="targetPoint" />
            <Array as="points">
              <mxPoint x="1050" y="331" />
            </Array>
          </mxGeometry>
        </mxCell>
        <mxCell id="2jxxQjxaxx46Wigxdtqs-3" value="" style="endArrow=diamondThin;endFill=0;endSize=24;html=1;rounded=0;edgeStyle=orthogonalEdgeStyle;entryX=-0.008;entryY=0.743;entryDx=0;entryDy=0;entryPerimeter=0;exitX=0.5;exitY=0;exitDx=0;exitDy=0;" edge="1" parent="1" source="2jxxQjxaxx46Wigxdtqs-22" target="2jxxQjxaxx46Wigxdtqs-15">
          <mxGeometry width="160" relative="1" as="geometry">
            <mxPoint x="551.3599999999999" y="503.56999999999994" as="sourcePoint" />
            <mxPoint x="721.28" y="359" as="targetPoint" />
            <Array as="points">
              <mxPoint x="580" y="331" />
            </Array>
          </mxGeometry>
        </mxCell>
        <mxCell id="2jxxQjxaxx46Wigxdtqs-4" value="programmingLanguage" style="swimlane;fontStyle=1;align=center;verticalAlign=top;childLayout=stackLayout;horizontal=1;startSize=26;horizontalStack=0;resizeParent=1;resizeParentMax=0;resizeLast=0;collapsible=1;marginBottom=0;" vertex="1" parent="1">
          <mxGeometry x="360" y="840" width="200" height="190" as="geometry" />
        </mxCell>
        <mxCell id="2jxxQjxaxx46Wigxdtqs-5" value="-Id&#xa;-user&#xa;-language&#xa;-topic&#xa;-user&#xa;-decription&#xa;-ratePerMInute" style="text;strokeColor=none;fillColor=none;align=left;verticalAlign=top;spacingLeft=4;spacingRight=4;overflow=hidden;rotatable=0;points=[[0,0.5],[1,0.5]];portConstraint=eastwest;" vertex="1" parent="2jxxQjxaxx46Wigxdtqs-4">
          <mxGeometry y="26" width="200" height="104" as="geometry" />
        </mxCell>
        <mxCell id="2jxxQjxaxx46Wigxdtqs-6" value="" style="line;strokeWidth=1;fillColor=none;align=left;verticalAlign=middle;spacingTop=-1;spacingLeft=3;spacingRight=3;rotatable=0;labelPosition=right;points=[];portConstraint=eastwest;" vertex="1" parent="2jxxQjxaxx46Wigxdtqs-4">
          <mxGeometry y="130" width="200" height="8" as="geometry" />
        </mxCell>
        <mxCell id="2jxxQjxaxx46Wigxdtqs-7" value="+add();&#xa;+update();&#xa;+delete()" style="text;strokeColor=none;fillColor=none;align=left;verticalAlign=top;spacingLeft=4;spacingRight=4;overflow=hidden;rotatable=0;points=[[0,0.5],[1,0.5]];portConstraint=eastwest;" vertex="1" parent="2jxxQjxaxx46Wigxdtqs-4">
          <mxGeometry y="138" width="200" height="52" as="geometry" />
        </mxCell>
        <mxCell id="2jxxQjxaxx46Wigxdtqs-8" value="Reviews" style="swimlane;fontStyle=1;align=center;verticalAlign=top;childLayout=stackLayout;horizontal=1;startSize=26;horizontalStack=0;resizeParent=1;resizeParentMax=0;resizeLast=0;collapsible=1;marginBottom=0;" vertex="1" parent="1">
          <mxGeometry x="735" y="460" width="160" height="180" as="geometry" />
        </mxCell>
        <mxCell id="2jxxQjxaxx46Wigxdtqs-9" value="-id&#xa;-user&#xa;-review&#xa;-rating&#xa;-reviewee(id)&#xa;-date" style="text;strokeColor=none;fillColor=none;align=left;verticalAlign=top;spacingLeft=4;spacingRight=4;overflow=hidden;rotatable=0;points=[[0,0.5],[1,0.5]];portConstraint=eastwest;" vertex="1" parent="2jxxQjxaxx46Wigxdtqs-8">
          <mxGeometry y="26" width="160" height="94" as="geometry" />
        </mxCell>
        <mxCell id="2jxxQjxaxx46Wigxdtqs-10" value="" style="line;strokeWidth=1;fillColor=none;align=left;verticalAlign=middle;spacingTop=-1;spacingLeft=3;spacingRight=3;rotatable=0;labelPosition=right;points=[];portConstraint=eastwest;" vertex="1" parent="2jxxQjxaxx46Wigxdtqs-8">
          <mxGeometry y="120" width="160" height="8" as="geometry" />
        </mxCell>
        <mxCell id="2jxxQjxaxx46Wigxdtqs-11" value="+postReview();&#xa;+deleteReview();" style="text;strokeColor=none;fillColor=none;align=left;verticalAlign=top;spacingLeft=4;spacingRight=4;overflow=hidden;rotatable=0;points=[[0,0.5],[1,0.5]];portConstraint=eastwest;" vertex="1" parent="2jxxQjxaxx46Wigxdtqs-8">
          <mxGeometry y="128" width="160" height="52" as="geometry" />
        </mxCell>
        <mxCell id="2jxxQjxaxx46Wigxdtqs-12" value="appointment" style="swimlane;fontStyle=1;align=center;verticalAlign=top;childLayout=stackLayout;horizontal=1;startSize=26;horizontalStack=0;resizeParent=1;resizeParentMax=0;resizeLast=0;collapsible=1;marginBottom=0;" vertex="1" parent="1">
          <mxGeometry x="1100" y="760" width="160" height="190" as="geometry" />
        </mxCell>
        <mxCell id="2jxxQjxaxx46Wigxdtqs-13" value="-id&#xa;-user&#xa;-classroomCode&#xa;-programminglanguage&#xa;-staringDate&#xa;-endingDate&#xa;Â timeSpend&#xa;-totalRate&#xa;-totalCommission&#xa;-totalAmount&#xa;-student" style="text;strokeColor=none;fillColor=none;align=left;verticalAlign=top;spacingLeft=4;spacingRight=4;overflow=hidden;rotatable=0;points=[[0,0.5],[1,0.5]];portConstraint=eastwest;" vertex="1" parent="2jxxQjxaxx46Wigxdtqs-12">
          <mxGeometry y="26" width="160" height="164" as="geometry" />
        </mxCell>
        <mxCell id="2jxxQjxaxx46Wigxdtqs-14" value="USER&#xa;" style="swimlane;fontStyle=1;align=center;verticalAlign=top;childLayout=stackLayout;horizontal=1;startSize=26;horizontalStack=0;resizeParent=1;resizeParentMax=0;resizeLast=0;collapsible=1;marginBottom=0;" vertex="1" parent="1">
          <mxGeometry x="720" y="250" width="170" height="170" as="geometry" />
        </mxCell>
        <mxCell id="2jxxQjxaxx46Wigxdtqs-15" value="-Id&#xa;-password&#xa;-loginStatus&#xa;-registerDate&#xa;" style="text;strokeColor=none;fillColor=none;align=left;verticalAlign=top;spacingLeft=4;spacingRight=4;overflow=hidden;rotatable=0;points=[[0,0.5],[1,0.5]];portConstraint=eastwest;" vertex="1" parent="2jxxQjxaxx46Wigxdtqs-14">
          <mxGeometry y="26" width="170" height="74" as="geometry" />
        </mxCell>
        <mxCell id="2jxxQjxaxx46Wigxdtqs-16" value="" style="line;strokeWidth=1;fillColor=none;align=left;verticalAlign=middle;spacingTop=-1;spacingLeft=3;spacingRight=3;rotatable=0;labelPosition=right;points=[];portConstraint=eastwest;" vertex="1" parent="2jxxQjxaxx46Wigxdtqs-14">
          <mxGeometry y="100" width="170" height="8" as="geometry" />
        </mxCell>
        <mxCell id="2jxxQjxaxx46Wigxdtqs-17" value="+login();&#xa;+register();&#xa;+ verifyLogin();" style="text;strokeColor=none;fillColor=none;align=left;verticalAlign=top;spacingLeft=4;spacingRight=4;overflow=hidden;rotatable=0;points=[[0,0.5],[1,0.5]];portConstraint=eastwest;" vertex="1" parent="2jxxQjxaxx46Wigxdtqs-14">
          <mxGeometry y="108" width="170" height="62" as="geometry" />
        </mxCell>
        <mxCell id="2jxxQjxaxx46Wigxdtqs-18" value="Admin" style="swimlane;fontStyle=1;align=center;verticalAlign=top;childLayout=stackLayout;horizontal=1;startSize=26;horizontalStack=0;resizeParent=1;resizeParentMax=0;resizeLast=0;collapsible=1;marginBottom=0;" vertex="1" parent="1">
          <mxGeometry x="970" y="470" width="160" height="160" as="geometry" />
        </mxCell>
        <mxCell id="2jxxQjxaxx46Wigxdtqs-19" value="-adminName&#xa;-adminEmail" style="text;strokeColor=none;fillColor=none;align=left;verticalAlign=top;spacingLeft=4;spacingRight=4;overflow=hidden;rotatable=0;points=[[0,0.5],[1,0.5]];portConstraint=eastwest;" vertex="1" parent="2jxxQjxaxx46Wigxdtqs-18">
          <mxGeometry y="26" width="160" height="44" as="geometry" />
        </mxCell>
        <mxCell id="2jxxQjxaxx46Wigxdtqs-20" value="" style="line;strokeWidth=1;fillColor=none;align=left;verticalAlign=middle;spacingTop=-1;spacingLeft=3;spacingRight=3;rotatable=0;labelPosition=right;points=[];portConstraint=eastwest;" vertex="1" parent="2jxxQjxaxx46Wigxdtqs-18">
          <mxGeometry y="70" width="160" height="8" as="geometry" />
        </mxCell>
        <mxCell id="2jxxQjxaxx46Wigxdtqs-21" value="+createUserDetails();&#xa;+readUserDetails();&#xa;+updateUserDetails();&#xa;+deleteUser();" style="text;strokeColor=none;fillColor=none;align=left;verticalAlign=top;spacingLeft=4;spacingRight=4;overflow=hidden;rotatable=0;points=[[0,0.5],[1,0.5]];portConstraint=eastwest;" vertex="1" parent="2jxxQjxaxx46Wigxdtqs-18">
          <mxGeometry y="78" width="160" height="82" as="geometry" />
        </mxCell>
        <mxCell id="2jxxQjxaxx46Wigxdtqs-22" value="Student/Teacher" style="swimlane;fontStyle=1;align=center;verticalAlign=top;childLayout=stackLayout;horizontal=1;startSize=26;horizontalStack=0;resizeParent=1;resizeParentMax=0;resizeLast=0;collapsible=1;marginBottom=0;" vertex="1" parent="1">
          <mxGeometry x="480" y="566" width="160" height="260" as="geometry" />
        </mxCell>
        <mxCell id="2jxxQjxaxx46Wigxdtqs-23" value="-firstName&#xa;-lastName&#xa;-email&#xa;-Gender&#xa;-Bio&#xa;-language&#xa;-Country&#xa;-City&#xa;-Balance&#xa;" style="text;strokeColor=none;fillColor=none;align=left;verticalAlign=top;spacingLeft=4;spacingRight=4;overflow=hidden;rotatable=0;points=[[0,0.5],[1,0.5]];portConstraint=eastwest;" vertex="1" parent="2jxxQjxaxx46Wigxdtqs-22">
          <mxGeometry y="26" width="160" height="144" as="geometry" />
        </mxCell>
        <mxCell id="2jxxQjxaxx46Wigxdtqs-24" value="" style="line;strokeWidth=1;fillColor=none;align=left;verticalAlign=middle;spacingTop=-1;spacingLeft=3;spacingRight=3;rotatable=0;labelPosition=right;points=[];portConstraint=eastwest;" vertex="1" parent="2jxxQjxaxx46Wigxdtqs-22">
          <mxGeometry y="170" width="160" height="8" as="geometry" />
        </mxCell>
        <mxCell id="2jxxQjxaxx46Wigxdtqs-25" value="+updateProfile();&#xa;+review();&#xa;+requestAppointment();&#xa;+requestStatus();&#xa;+appointment();" style="text;strokeColor=none;fillColor=none;align=left;verticalAlign=top;spacingLeft=4;spacingRight=4;overflow=hidden;rotatable=0;points=[[0,0.5],[1,0.5]];portConstraint=eastwest;" vertex="1" parent="2jxxQjxaxx46Wigxdtqs-22">
          <mxGeometry y="178" width="160" height="82" as="geometry" />
        </mxCell>
        <mxCell id="2jxxQjxaxx46Wigxdtqs-26" value="" style="endArrow=diamondThin;endFill=1;endSize=24;html=1;rounded=0;edgeStyle=orthogonalEdgeStyle;exitX=-0.006;exitY=0.797;exitDx=0;exitDy=0;exitPerimeter=0;entryX=1.021;entryY=0.156;entryDx=0;entryDy=0;entryPerimeter=0;" edge="1" parent="1" source="2jxxQjxaxx46Wigxdtqs-9" target="2jxxQjxaxx46Wigxdtqs-23">
          <mxGeometry width="160" relative="1" as="geometry">
            <mxPoint x="800" y="690" as="sourcePoint" />
            <mxPoint x="960" y="690" as="targetPoint" />
          </mxGeometry>
        </mxCell>
        <mxCell id="2jxxQjxaxx46Wigxdtqs-27" value="" style="endArrow=diamondThin;endFill=1;endSize=24;html=1;rounded=0;edgeStyle=orthogonalEdgeStyle;exitX=0.5;exitY=0;exitDx=0;exitDy=0;entryX=1.005;entryY=0.571;entryDx=0;entryDy=0;entryPerimeter=0;" edge="1" parent="1">
          <mxGeometry width="160" relative="1" as="geometry">
            <mxPoint x="1179" y="762" as="sourcePoint" />
            <mxPoint x="639.8" y="676.2239999999999" as="targetPoint" />
            <Array as="points">
              <mxPoint x="1179" y="676" />
              <mxPoint x="709" y="676" />
            </Array>
          </mxGeometry>
        </mxCell>
        <mxCell id="2jxxQjxaxx46Wigxdtqs-28" value="" style="endArrow=diamondThin;endFill=1;endSize=24;html=1;rounded=0;edgeStyle=orthogonalEdgeStyle;entryX=0;entryY=0.5;entryDx=0;entryDy=0;exitX=0.468;exitY=0;exitDx=0;exitDy=0;exitPerimeter=0;" edge="1" parent="1" source="2jxxQjxaxx46Wigxdtqs-4" target="2jxxQjxaxx46Wigxdtqs-23">
          <mxGeometry width="160" relative="1" as="geometry">
            <mxPoint x="820" y="710" as="sourcePoint" />
            <mxPoint x="980" y="710" as="targetPoint" />
            <Array as="points">
              <mxPoint x="430" y="840" />
              <mxPoint x="430" y="664" />
            </Array>
          </mxGeometry>
        </mxCell>
        <mxCell id="2jxxQjxaxx46Wigxdtqs-29" value="1...*" style="text;strokeColor=none;fillColor=none;align=left;verticalAlign=top;spacingLeft=4;spacingRight=4;overflow=hidden;rotatable=0;points=[[0,0.5],[1,0.5]];portConstraint=eastwest;" vertex="1" parent="1">
          <mxGeometry x="700" y="530" width="100" height="26" as="geometry" />
        </mxCell>
        <mxCell id="2jxxQjxaxx46Wigxdtqs-30" value="1...*" style="text;strokeColor=none;fillColor=none;align=left;verticalAlign=top;spacingLeft=4;spacingRight=4;overflow=hidden;rotatable=0;points=[[0,0.5],[1,0.5]];portConstraint=eastwest;" vertex="1" parent="1">
          <mxGeometry x="720" y="734" width="100" height="26" as="geometry" />
        </mxCell>
        <mxCell id="2jxxQjxaxx46Wigxdtqs-31" value="1...*" style="text;strokeColor=none;fillColor=none;align=left;verticalAlign=top;spacingLeft=4;spacingRight=4;overflow=hidden;rotatable=0;points=[[0,0.5],[1,0.5]];portConstraint=eastwest;" vertex="1" parent="1">
          <mxGeometry x="380" y="812" width="100" height="26" as="geometry" />
        </mxCell>
        <mxCell id="2jxxQjxaxx46Wigxdtqs-32" value="CCLE - Class Diagram" style="text;strokeColor=none;fillColor=none;html=1;fontSize=24;fontStyle=1;verticalAlign=middle;align=center;" vertex="1" parent="1">
          <mxGeometry x="640" y="190" width="309" height="40" as="geometry" />
        </mxCell>
        <mxCell id="2jxxQjxaxx46Wigxdtqs-33" value="requestAppointment" style="swimlane;fontStyle=0;childLayout=stackLayout;horizontal=1;startSize=26;horizontalStack=0;resizeParent=1;resizeParentMax=0;resizeLast=0;collapsible=1;marginBottom=0;align=center;fontSize=14;" vertex="1" parent="1">
          <mxGeometry x="680" y="760" width="200" height="232" as="geometry" />
        </mxCell>
        <mxCell id="2jxxQjxaxx46Wigxdtqs-34" value="-id&#xa;-user&#xa;-programminglanguage&#xa;-staringDate&#xa;-endingDate&#xa;-timeSpend&#xa;-totalRate&#xa;-totalCommission&#xa;-totalAmount&#xa;-student" style="text;strokeColor=none;fillColor=none;spacingLeft=4;spacingRight=4;overflow=hidden;rotatable=0;points=[[0,0.5],[1,0.5]];portConstraint=eastwest;fontSize=12;" vertex="1" parent="2jxxQjxaxx46Wigxdtqs-33">
          <mxGeometry y="26" width="200" height="154" as="geometry" />
        </mxCell>
        <mxCell id="2jxxQjxaxx46Wigxdtqs-35" value="" style="line;strokeWidth=1;rotatable=0;dashed=0;labelPosition=right;align=left;verticalAlign=middle;spacingTop=0;spacingLeft=6;points=[];portConstraint=eastwest;" vertex="1" parent="2jxxQjxaxx46Wigxdtqs-33">
          <mxGeometry y="180" width="200" height="10" as="geometry" />
        </mxCell>
        <mxCell id="2jxxQjxaxx46Wigxdtqs-36" value="+accept();&#xa;+reject();" style="text;strokeColor=none;fillColor=none;align=left;verticalAlign=top;spacingLeft=4;spacingRight=4;overflow=hidden;rotatable=0;points=[[0,0.5],[1,0.5]];portConstraint=eastwest;" vertex="1" parent="2jxxQjxaxx46Wigxdtqs-33">
          <mxGeometry y="190" width="200" height="42" as="geometry" />
        </mxCell>
        <mxCell id="2jxxQjxaxx46Wigxdtqs-37" value="" style="endArrow=diamondThin;endFill=1;endSize=24;html=1;rounded=0;edgeStyle=orthogonalEdgeStyle;exitX=0.5;exitY=0;exitDx=0;exitDy=0;" edge="1" parent="1" source="2jxxQjxaxx46Wigxdtqs-33">
          <mxGeometry width="160" relative="1" as="geometry">
            <mxPoint x="945.6799999999998" y="645.0780000000001" as="sourcePoint" />
            <mxPoint x="640" y="712" as="targetPoint" />
            <Array as="points">
              <mxPoint x="780" y="712" />
            </Array>
          </mxGeometry>
        </mxCell>
        <mxCell id="2jxxQjxaxx46Wigxdtqs-38" value="requestStatus" style="swimlane;fontStyle=0;childLayout=stackLayout;horizontal=1;startSize=26;horizontalStack=0;resizeParent=1;resizeParentMax=0;resizeLast=0;collapsible=1;marginBottom=0;align=center;fontSize=14;" vertex="1" parent="1">
          <mxGeometry x="920" y="760" width="160" height="232" as="geometry" />
        </mxCell>
        <mxCell id="2jxxQjxaxx46Wigxdtqs-39" value="-id&#xa;-user&#xa;-programminglanguage&#xa;-staringDate&#xa;-endingDate&#xa;-timeSpend&#xa;-totalRate&#xa;-totalCommission&#xa;-totalAmount&#xa;-student" style="text;strokeColor=none;fillColor=none;spacingLeft=4;spacingRight=4;overflow=hidden;rotatable=0;points=[[0,0.5],[1,0.5]];portConstraint=eastwest;fontSize=12;" vertex="1" parent="2jxxQjxaxx46Wigxdtqs-38">
          <mxGeometry y="26" width="160" height="154" as="geometry" />
        </mxCell>
        <mxCell id="2jxxQjxaxx46Wigxdtqs-40" value="" style="line;strokeWidth=1;rotatable=0;dashed=0;labelPosition=right;align=left;verticalAlign=middle;spacingTop=0;spacingLeft=6;points=[];portConstraint=eastwest;" vertex="1" parent="2jxxQjxaxx46Wigxdtqs-38">
          <mxGeometry y="180" width="160" height="10" as="geometry" />
        </mxCell>
        <mxCell id="2jxxQjxaxx46Wigxdtqs-41" value="+pay();&#xa;+cancel();" style="text;strokeColor=none;fillColor=none;align=left;verticalAlign=top;spacingLeft=4;spacingRight=4;overflow=hidden;rotatable=0;points=[[0,0.5],[1,0.5]];portConstraint=eastwest;" vertex="1" parent="2jxxQjxaxx46Wigxdtqs-38">
          <mxGeometry y="190" width="160" height="42" as="geometry" />
        </mxCell>
        <mxCell id="2jxxQjxaxx46Wigxdtqs-42" value="" style="endArrow=diamondThin;endFill=1;endSize=24;html=1;rounded=0;edgeStyle=orthogonalEdgeStyle;exitX=0.448;exitY=-0.001;exitDx=0;exitDy=0;startArrow=none;exitPerimeter=0;entryX=0.993;entryY=0.754;entryDx=0;entryDy=0;entryPerimeter=0;" edge="1" parent="1" source="2jxxQjxaxx46Wigxdtqs-38">
          <mxGeometry width="160" relative="1" as="geometry">
            <mxPoint x="994.44" y="753.0719999999999" as="sourcePoint" />
            <mxPoint x="639.8799999999999" y="694.576" as="targetPoint" />
            <Array as="points">
              <mxPoint x="992" y="753" />
              <mxPoint x="991" y="753" />
              <mxPoint x="991" y="695" />
            </Array>
          </mxGeometry>
        </mxCell>
        <mxCell id="2jxxQjxaxx46Wigxdtqs-43" value="1...*" style="text;strokeColor=none;fillColor=none;align=left;verticalAlign=top;spacingLeft=4;spacingRight=4;overflow=hidden;rotatable=0;points=[[0,0.5],[1,0.5]];portConstraint=eastwest;" vertex="1" parent="1">
          <mxGeometry x="1130" y="730" width="100" height="26" as="geometry" />
        </mxCell>
        <mxCell id="2jxxQjxaxx46Wigxdtqs-44" value="1...*" style="text;strokeColor=none;fillColor=none;align=left;verticalAlign=top;spacingLeft=4;spacingRight=4;overflow=hidden;rotatable=0;points=[[0,0.5],[1,0.5]];portConstraint=eastwest;" vertex="1" parent="1">
          <mxGeometry x="940" y="730" width="100" height="26" as="geometry" />
        </mxCell>
      </root>
    </mxGraphModel>
  </diagram>
</mxfile>
